<svg width="98" height="85" viewBox="0 0 98 85" fill="none" xmlns="http://www.w3.org/2000/svg">
<path d="M40.0809 10.542C35.3659 16.33 31.4749 21.217 31.4369 21.371C31.2639 22.138 31.6859 22.233 35.0589 22.233H38.2979V31.203C38.2979 37.93 38.3549 40.23 38.5279 40.403C38.6999 40.576 41.2879 40.633 48.9539 40.633C57.9809 40.633 59.1889 40.595 59.4569 40.326C59.7249 40.058 59.7639 38.965 59.7639 31.126V22.233H63.0029C66.4139 22.233 66.8359 22.137 66.6249 21.313C66.5679 21.121 62.6769 16.253 57.9619 10.484C52.0969 3.31599 49.2799 -5.31743e-06 49.0309 -5.31743e-06C48.7819 -5.31743e-06 45.9639 3.31699 40.0809 10.542Z" fill="black"/>
<path d="M2.49592 18.611C1.63392 18.86 0.406922 20.125 0.157922 21.045C0.0239218 21.582 -0.0150782 31.03 0.0049218 51.787L0.0619218 81.743L0.521922 82.471C0.770922 82.874 1.32692 83.429 1.74892 83.717L2.53492 84.234H49.0119H95.5089L96.2369 83.774C96.6399 83.525 97.1949 82.969 97.4829 82.548L97.9999 81.762V51.365V20.968L97.4829 20.182C97.1949 19.76 96.6399 19.205 96.2369 18.955L95.5089 18.495L83.0129 18.438C76.1329 18.419 70.4979 18.419 70.4979 18.476C70.4979 18.514 70.6709 18.917 70.8809 19.377C71.6089 21.006 71.2639 23.613 70.1719 24.763L69.6549 25.3H80.4259H91.1969V41.917V58.553L84.1439 51.5C79.6019 46.958 76.9759 44.466 76.7269 44.466C76.4779 44.466 73.7559 47.053 69.0219 51.787L61.6999 59.109L54.6279 52.171L47.5369 45.233H42.8599C39.0839 45.233 38.0109 45.176 37.2829 44.926C36.2279 44.562 34.6179 43.201 34.2729 42.358C34.1389 42.051 33.9859 41.783 33.9089 41.783C33.8519 41.783 31.7049 43.872 29.1559 46.421L24.4989 51.078L21.1829 47.762C19.1709 45.75 17.7329 44.465 17.5029 44.465C17.2729 44.465 15.2029 46.401 12.0019 49.582L6.86592 54.718V40V25.3L17.6179 25.262L28.3889 25.205L27.8709 24.592C26.5869 23.059 26.4529 21.142 27.4689 18.727C27.6029 18.42 26.9519 18.401 15.3749 18.42C8.28392 18.419 2.85992 18.515 2.49592 18.611Z" fill="black"/>
</svg>
